<mxfile host="app.diagrams.net" agent="Mozilla/5.0 (Windows NT 10.0; Win64; x64) AppleWebKit/537.36 (KHTML, like Gecko) Chrome/137.0.0.0 Safari/537.36" version="27.1.4" pages="2">
  <diagram name="Flow Chart - Game Logic" id="XbMdHyE_Wqh8dYJ-jFpN">
    <mxGraphModel dx="1303" dy="1828" grid="1" gridSize="10" guides="1" tooltips="1" connect="1" arrows="1" fold="1" page="1" pageScale="1" pageWidth="827" pageHeight="1169" math="0" shadow="0">
      <root>
        <mxCell id="0" />
        <mxCell id="1" parent="0" />
        <mxCell id="tcNnHMlL9fYck-OCFv9G-6" value="người chơi phản hồi" style="rhombus;whiteSpace=wrap;html=1;" parent="1" vertex="1">
          <mxGeometry x="420" y="805" width="160" height="90" as="geometry" />
        </mxCell>
        <mxCell id="tcNnHMlL9fYck-OCFv9G-8" value="" style="endArrow=classic;html=1;rounded=0;entryX=0.5;entryY=0;entryDx=0;entryDy=0;exitX=0.5;exitY=1;exitDx=0;exitDy=0;" parent="1" source="R_fJoWbVvR2tyE0JCgN_-5" edge="1">
          <mxGeometry width="50" height="50" relative="1" as="geometry">
            <mxPoint x="500" y="530" as="sourcePoint" />
            <mxPoint x="500" y="580" as="targetPoint" />
          </mxGeometry>
        </mxCell>
        <mxCell id="tcNnHMlL9fYck-OCFv9G-9" value="Hiện thông báo &quot;Correct&quot;&amp;nbsp;" style="ellipse;whiteSpace=wrap;html=1;" parent="1" vertex="1">
          <mxGeometry x="440" y="1025" width="120" height="80" as="geometry" />
        </mxCell>
        <mxCell id="tcNnHMlL9fYck-OCFv9G-10" value="" style="endArrow=none;dashed=1;html=1;dashPattern=1 3;strokeWidth=2;rounded=0;" parent="1" edge="1">
          <mxGeometry width="50" height="50" relative="1" as="geometry">
            <mxPoint x="420" y="550" as="sourcePoint" />
            <mxPoint x="580" y="550" as="targetPoint" />
          </mxGeometry>
        </mxCell>
        <mxCell id="tcNnHMlL9fYck-OCFv9G-12" value="" style="endArrow=classic;html=1;rounded=0;entryX=0.5;entryY=0;entryDx=0;entryDy=0;" parent="1" edge="1">
          <mxGeometry width="50" height="50" relative="1" as="geometry">
            <mxPoint x="270" y="895" as="sourcePoint" />
            <mxPoint x="410" y="980" as="targetPoint" />
          </mxGeometry>
        </mxCell>
        <mxCell id="tcNnHMlL9fYck-OCFv9G-13" value="trả lời đúng" style="text;html=1;align=center;verticalAlign=middle;whiteSpace=wrap;rounded=0;" parent="1" vertex="1">
          <mxGeometry x="310" y="1010" width="100" height="30" as="geometry" />
        </mxCell>
        <mxCell id="tcNnHMlL9fYck-OCFv9G-15" value="" style="endArrow=classic;html=1;rounded=0;exitX=1;exitY=0.5;exitDx=0;exitDy=0;entryX=0;entryY=0.5;entryDx=0;entryDy=0;" parent="1" source="tcNnHMlL9fYck-OCFv9G-6" target="R_fJoWbVvR2tyE0JCgN_-8" edge="1">
          <mxGeometry width="50" height="50" relative="1" as="geometry">
            <mxPoint x="650" y="830" as="sourcePoint" />
            <mxPoint x="630" y="780" as="targetPoint" />
          </mxGeometry>
        </mxCell>
        <mxCell id="tcNnHMlL9fYck-OCFv9G-16" value="trả lời sai" style="text;html=1;align=center;verticalAlign=middle;whiteSpace=wrap;rounded=0;" parent="1" vertex="1">
          <mxGeometry x="560" y="825" width="100" height="30" as="geometry" />
        </mxCell>
        <mxCell id="tcNnHMlL9fYck-OCFv9G-17" value="Điểm: +20/100 (1/5 câu hỏi)" style="ellipse;whiteSpace=wrap;html=1;" parent="1" vertex="1">
          <mxGeometry x="290" y="1150" width="170" height="100" as="geometry" />
        </mxCell>
        <mxCell id="tcNnHMlL9fYck-OCFv9G-19" value="" style="endArrow=classic;html=1;rounded=0;exitX=0.5;exitY=1;exitDx=0;exitDy=0;entryX=0.5;entryY=0;entryDx=0;entryDy=0;" parent="1" source="R_fJoWbVvR2tyE0JCgN_-6" target="R_fJoWbVvR2tyE0JCgN_-7" edge="1">
          <mxGeometry width="50" height="50" relative="1" as="geometry">
            <mxPoint x="500" y="660" as="sourcePoint" />
            <mxPoint x="580" y="660" as="targetPoint" />
          </mxGeometry>
        </mxCell>
        <mxCell id="tcNnHMlL9fYck-OCFv9G-20" value="" style="endArrow=classic;html=1;rounded=0;exitX=0.5;exitY=1;exitDx=0;exitDy=0;entryX=0.5;entryY=0;entryDx=0;entryDy=0;" parent="1" source="R_fJoWbVvR2tyE0JCgN_-7" target="tcNnHMlL9fYck-OCFv9G-6" edge="1">
          <mxGeometry width="50" height="50" relative="1" as="geometry">
            <mxPoint x="380" y="810" as="sourcePoint" />
            <mxPoint x="280" y="870" as="targetPoint" />
          </mxGeometry>
        </mxCell>
        <mxCell id="tcNnHMlL9fYck-OCFv9G-21" value="Thời gian hiện kết quả + sang câu hỏi tiếp theo: 7 giây" style="ellipse;whiteSpace=wrap;html=1;" parent="1" vertex="1">
          <mxGeometry x="540" y="1150" width="210" height="90" as="geometry" />
        </mxCell>
        <mxCell id="tcNnHMlL9fYck-OCFv9G-22" value="" style="endArrow=classic;html=1;rounded=0;exitX=0.5;exitY=1;exitDx=0;exitDy=0;entryX=0.5;entryY=0;entryDx=0;entryDy=0;" parent="1" source="tcNnHMlL9fYck-OCFv9G-9" target="tcNnHMlL9fYck-OCFv9G-17" edge="1">
          <mxGeometry width="50" height="50" relative="1" as="geometry">
            <mxPoint x="220" y="1140" as="sourcePoint" />
            <mxPoint x="270" y="1090" as="targetPoint" />
          </mxGeometry>
        </mxCell>
        <mxCell id="tcNnHMlL9fYck-OCFv9G-23" value="" style="endArrow=classic;html=1;rounded=0;exitX=0.5;exitY=1;exitDx=0;exitDy=0;entryX=0.5;entryY=0;entryDx=0;entryDy=0;" parent="1" source="tcNnHMlL9fYck-OCFv9G-9" target="tcNnHMlL9fYck-OCFv9G-21" edge="1">
          <mxGeometry width="50" height="50" relative="1" as="geometry">
            <mxPoint x="410" y="1100" as="sourcePoint" />
            <mxPoint x="460" y="1050" as="targetPoint" />
          </mxGeometry>
        </mxCell>
        <mxCell id="tcNnHMlL9fYck-OCFv9G-24" value="" style="endArrow=classic;html=1;rounded=0;exitX=1;exitY=0.5;exitDx=0;exitDy=0;entryX=1.013;entryY=0.44;entryDx=0;entryDy=0;entryPerimeter=0;" parent="1" source="R_fJoWbVvR2tyE0JCgN_-8" target="tcNnHMlL9fYck-OCFv9G-21" edge="1">
          <mxGeometry width="50" height="50" relative="1" as="geometry">
            <mxPoint x="820" y="905" as="sourcePoint" />
            <mxPoint x="820" y="1030" as="targetPoint" />
            <Array as="points">
              <mxPoint x="860" y="850" />
              <mxPoint x="860" y="1190" />
            </Array>
          </mxGeometry>
        </mxCell>
        <mxCell id="tcNnHMlL9fYck-OCFv9G-26" value="Chuyển sang câu hỏi tiếp theo" style="ellipse;whiteSpace=wrap;html=1;" parent="1" vertex="1">
          <mxGeometry x="440" y="1290" width="120" height="80" as="geometry" />
        </mxCell>
        <mxCell id="tcNnHMlL9fYck-OCFv9G-27" value="" style="endArrow=classic;html=1;rounded=0;exitX=0.5;exitY=1;exitDx=0;exitDy=0;entryX=0;entryY=0.5;entryDx=0;entryDy=0;" parent="1" source="tcNnHMlL9fYck-OCFv9G-17" target="tcNnHMlL9fYck-OCFv9G-26" edge="1">
          <mxGeometry width="50" height="50" relative="1" as="geometry">
            <mxPoint x="260" y="1340" as="sourcePoint" />
            <mxPoint x="310" y="1290" as="targetPoint" />
          </mxGeometry>
        </mxCell>
        <mxCell id="tcNnHMlL9fYck-OCFv9G-28" value="" style="endArrow=classic;html=1;rounded=0;exitX=0.5;exitY=1;exitDx=0;exitDy=0;entryX=1;entryY=0.5;entryDx=0;entryDy=0;" parent="1" source="tcNnHMlL9fYck-OCFv9G-21" target="tcNnHMlL9fYck-OCFv9G-26" edge="1">
          <mxGeometry width="50" height="50" relative="1" as="geometry">
            <mxPoint x="330" y="1370" as="sourcePoint" />
            <mxPoint x="380" y="1320" as="targetPoint" />
          </mxGeometry>
        </mxCell>
        <mxCell id="tcNnHMlL9fYck-OCFv9G-29" value="Số lượng câu hỏi" style="rhombus;whiteSpace=wrap;html=1;" parent="1" vertex="1">
          <mxGeometry x="430" y="1420" width="140" height="80" as="geometry" />
        </mxCell>
        <mxCell id="tcNnHMlL9fYck-OCFv9G-30" value="" style="endArrow=classic;html=1;rounded=0;exitX=0;exitY=0.5;exitDx=0;exitDy=0;entryX=0;entryY=0.5;entryDx=0;entryDy=0;" parent="1" source="tcNnHMlL9fYck-OCFv9G-29" target="R_fJoWbVvR2tyE0JCgN_-6" edge="1">
          <mxGeometry width="50" height="50" relative="1" as="geometry">
            <mxPoint x="160" y="1450" as="sourcePoint" />
            <mxPoint x="450" y="620" as="targetPoint" />
            <Array as="points">
              <mxPoint x="220" y="1460" />
              <mxPoint x="220" y="605" />
            </Array>
          </mxGeometry>
        </mxCell>
        <mxCell id="tcNnHMlL9fYck-OCFv9G-31" value="còn câu hỏi" style="text;html=1;align=center;verticalAlign=middle;whiteSpace=wrap;rounded=0;" parent="1" vertex="1">
          <mxGeometry x="280" y="1430" width="100" height="30" as="geometry" />
        </mxCell>
        <mxCell id="tcNnHMlL9fYck-OCFv9G-32" value="Hiện điểm số người chơi + nút &quot;chơi lại&quot;" style="ellipse;whiteSpace=wrap;html=1;" parent="1" vertex="1">
          <mxGeometry x="425" y="1550" width="150" height="100" as="geometry" />
        </mxCell>
        <mxCell id="tcNnHMlL9fYck-OCFv9G-35" value="hoạt động xảy ra đồng thời" style="text;html=1;align=center;verticalAlign=middle;whiteSpace=wrap;rounded=0;" parent="1" vertex="1">
          <mxGeometry x="440" y="1140" width="120" height="30" as="geometry" />
        </mxCell>
        <mxCell id="tcNnHMlL9fYck-OCFv9G-37" value="hoạt động xảy ra đồng thời" style="text;html=1;align=center;verticalAlign=middle;whiteSpace=wrap;rounded=0;" parent="1" vertex="1">
          <mxGeometry x="860" y="1020" width="120" height="30" as="geometry" />
        </mxCell>
        <mxCell id="tcNnHMlL9fYck-OCFv9G-39" value="Lựa chọn chơi lại" style="rhombus;whiteSpace=wrap;html=1;" parent="1" vertex="1">
          <mxGeometry x="425" y="1710" width="150" height="100" as="geometry" />
        </mxCell>
        <mxCell id="tcNnHMlL9fYck-OCFv9G-40" value="" style="endArrow=classic;html=1;rounded=0;exitX=0;exitY=0.5;exitDx=0;exitDy=0;entryX=0;entryY=0.5;entryDx=0;entryDy=0;" parent="1" source="tcNnHMlL9fYck-OCFv9G-39" edge="1">
          <mxGeometry width="50" height="50" relative="1" as="geometry">
            <mxPoint x="110" y="1790" as="sourcePoint" />
            <mxPoint x="450" y="500" as="targetPoint" />
            <Array as="points">
              <mxPoint x="100" y="1760" />
              <mxPoint x="100" y="500" />
            </Array>
          </mxGeometry>
        </mxCell>
        <mxCell id="tcNnHMlL9fYck-OCFv9G-41" value="Có" style="text;html=1;align=center;verticalAlign=middle;whiteSpace=wrap;rounded=0;" parent="1" vertex="1">
          <mxGeometry x="325" y="1730" width="100" height="30" as="geometry" />
        </mxCell>
        <mxCell id="tcNnHMlL9fYck-OCFv9G-43" value="" style="ellipse;html=1;shape=endState;fillColor=#000000;strokeColor=#ff0000;" parent="1" vertex="1">
          <mxGeometry x="485" y="1870" width="30" height="30" as="geometry" />
        </mxCell>
        <mxCell id="tcNnHMlL9fYck-OCFv9G-44" value="Không" style="text;html=1;align=center;verticalAlign=middle;whiteSpace=wrap;rounded=0;" parent="1" vertex="1">
          <mxGeometry x="500" y="1830" width="100" height="30" as="geometry" />
        </mxCell>
        <mxCell id="tcNnHMlL9fYck-OCFv9G-45" value="" style="endArrow=classic;html=1;rounded=0;exitX=0.5;exitY=1;exitDx=0;exitDy=0;entryX=0.5;entryY=0;entryDx=0;entryDy=0;" parent="1" source="tcNnHMlL9fYck-OCFv9G-39" target="tcNnHMlL9fYck-OCFv9G-43" edge="1">
          <mxGeometry width="50" height="50" relative="1" as="geometry">
            <mxPoint x="310" y="1880" as="sourcePoint" />
            <mxPoint x="360" y="1830" as="targetPoint" />
          </mxGeometry>
        </mxCell>
        <mxCell id="tcNnHMlL9fYck-OCFv9G-46" value="" style="endArrow=classic;html=1;rounded=0;exitX=0.5;exitY=1;exitDx=0;exitDy=0;entryX=0.5;entryY=0;entryDx=0;entryDy=0;" parent="1" source="tcNnHMlL9fYck-OCFv9G-26" target="tcNnHMlL9fYck-OCFv9G-29" edge="1">
          <mxGeometry width="50" height="50" relative="1" as="geometry">
            <mxPoint x="350" y="1600" as="sourcePoint" />
            <mxPoint x="400" y="1550" as="targetPoint" />
          </mxGeometry>
        </mxCell>
        <mxCell id="tcNnHMlL9fYck-OCFv9G-47" value="" style="endArrow=classic;html=1;rounded=0;exitX=0.5;exitY=1;exitDx=0;exitDy=0;entryX=0.5;entryY=0;entryDx=0;entryDy=0;" parent="1" source="tcNnHMlL9fYck-OCFv9G-29" target="tcNnHMlL9fYck-OCFv9G-32" edge="1">
          <mxGeometry width="50" height="50" relative="1" as="geometry">
            <mxPoint x="290" y="1660" as="sourcePoint" />
            <mxPoint x="340" y="1610" as="targetPoint" />
          </mxGeometry>
        </mxCell>
        <mxCell id="tcNnHMlL9fYck-OCFv9G-48" value="" style="endArrow=classic;html=1;rounded=0;exitX=0.5;exitY=1;exitDx=0;exitDy=0;entryX=0.5;entryY=0;entryDx=0;entryDy=0;" parent="1" source="tcNnHMlL9fYck-OCFv9G-32" target="tcNnHMlL9fYck-OCFv9G-39" edge="1">
          <mxGeometry width="50" height="50" relative="1" as="geometry">
            <mxPoint x="790" y="1760" as="sourcePoint" />
            <mxPoint x="840" y="1710" as="targetPoint" />
          </mxGeometry>
        </mxCell>
        <mxCell id="R_fJoWbVvR2tyE0JCgN_-5" value="5 câu hỏi" style="rounded=1;whiteSpace=wrap;html=1;" vertex="1" parent="1">
          <mxGeometry x="455" y="470" width="90" height="50" as="geometry" />
        </mxCell>
        <mxCell id="R_fJoWbVvR2tyE0JCgN_-6" value="1 câu hỏi =&amp;gt; 4 câu trả lời" style="rounded=1;whiteSpace=wrap;html=1;" vertex="1" parent="1">
          <mxGeometry x="455" y="580" width="90" height="50" as="geometry" />
        </mxCell>
        <mxCell id="R_fJoWbVvR2tyE0JCgN_-7" value="Thời gian suy nghĩ: 15 giây" style="shape=delay;whiteSpace=wrap;html=1;" vertex="1" parent="1">
          <mxGeometry x="440" y="690" width="120" height="60" as="geometry" />
        </mxCell>
        <mxCell id="R_fJoWbVvR2tyE0JCgN_-8" value="Hiện kết quả đáp án" style="rounded=1;whiteSpace=wrap;html=1;" vertex="1" parent="1">
          <mxGeometry x="645" y="825" width="90" height="50" as="geometry" />
        </mxCell>
        <mxCell id="Cc6EkGOJcDhfvZlC7IZs-1" value="Hiện kết quả đáp án" style="rounded=1;whiteSpace=wrap;html=1;" vertex="1" parent="1">
          <mxGeometry x="565" y="940" width="90" height="50" as="geometry" />
        </mxCell>
        <mxCell id="Cc6EkGOJcDhfvZlC7IZs-2" value="Quiz Game&amp;nbsp;" style="swimlane;childLayout=stackLayout;resizeParent=1;resizeParentMax=0;horizontal=1;startSize=20;horizontalStack=0;html=1;" vertex="1" parent="1">
          <mxGeometry x="80" y="-360" width="1240" height="560" as="geometry" />
        </mxCell>
        <mxCell id="Cc6EkGOJcDhfvZlC7IZs-3" value="User" style="swimlane;startSize=20;horizontal=0;html=1;" vertex="1" parent="Cc6EkGOJcDhfvZlC7IZs-2">
          <mxGeometry y="20" width="1240" height="180" as="geometry" />
        </mxCell>
        <mxCell id="Cc6EkGOJcDhfvZlC7IZs-6" value="Start Game" style="strokeWidth=2;html=1;shape=mxgraph.flowchart.terminator;whiteSpace=wrap;" vertex="1" parent="Cc6EkGOJcDhfvZlC7IZs-3">
          <mxGeometry x="30" y="60" width="60" height="30" as="geometry" />
        </mxCell>
        <mxCell id="Cc6EkGOJcDhfvZlC7IZs-8" style="edgeStyle=orthogonalEdgeStyle;rounded=0;orthogonalLoop=1;jettySize=auto;html=1;entryX=0.5;entryY=0;entryDx=0;entryDy=0;exitX=1;exitY=0.5;exitDx=0;exitDy=0;exitPerimeter=0;" edge="1" parent="Cc6EkGOJcDhfvZlC7IZs-2" source="Cc6EkGOJcDhfvZlC7IZs-6" target="Cc6EkGOJcDhfvZlC7IZs-7">
          <mxGeometry relative="1" as="geometry" />
        </mxCell>
        <mxCell id="Cc6EkGOJcDhfvZlC7IZs-4" value="System" style="swimlane;startSize=20;horizontal=0;html=1;" vertex="1" parent="Cc6EkGOJcDhfvZlC7IZs-2">
          <mxGeometry y="200" width="1240" height="360" as="geometry" />
        </mxCell>
        <mxCell id="Cc6EkGOJcDhfvZlC7IZs-58" style="edgeStyle=orthogonalEdgeStyle;rounded=0;orthogonalLoop=1;jettySize=auto;html=1;entryX=0;entryY=0.5;entryDx=0;entryDy=0;" edge="1" parent="Cc6EkGOJcDhfvZlC7IZs-4" source="Cc6EkGOJcDhfvZlC7IZs-7" target="Cc6EkGOJcDhfvZlC7IZs-53">
          <mxGeometry relative="1" as="geometry" />
        </mxCell>
        <mxCell id="Cc6EkGOJcDhfvZlC7IZs-7" value="Hiện câu hỏi" style="rounded=1;whiteSpace=wrap;html=1;" vertex="1" parent="Cc6EkGOJcDhfvZlC7IZs-4">
          <mxGeometry x="90" y="77.5" width="60" height="45" as="geometry" />
        </mxCell>
        <mxCell id="Cc6EkGOJcDhfvZlC7IZs-9" value="Trả lời câu hỏi" style="rounded=1;whiteSpace=wrap;html=1;" vertex="1" parent="Cc6EkGOJcDhfvZlC7IZs-4">
          <mxGeometry x="450" y="-120" width="60" height="40" as="geometry" />
        </mxCell>
        <mxCell id="Cc6EkGOJcDhfvZlC7IZs-30" value="" style="endArrow=classic;html=1;rounded=0;exitX=1;exitY=0.5;exitDx=0;exitDy=0;entryX=0;entryY=0.5;entryDx=0;entryDy=0;" edge="1" parent="Cc6EkGOJcDhfvZlC7IZs-4" source="Cc6EkGOJcDhfvZlC7IZs-11" target="Cc6EkGOJcDhfvZlC7IZs-9">
          <mxGeometry width="50" height="50" relative="1" as="geometry">
            <mxPoint x="20" y="70" as="sourcePoint" />
            <mxPoint x="70" y="20" as="targetPoint" />
            <Array as="points">
              <mxPoint x="430" y="100" />
              <mxPoint x="430" y="-100" />
            </Array>
          </mxGeometry>
        </mxCell>
        <mxCell id="Cc6EkGOJcDhfvZlC7IZs-31" value="" style="endArrow=classic;html=1;rounded=0;exitX=1;exitY=0.5;exitDx=0;exitDy=0;entryX=0;entryY=0.5;entryDx=0;entryDy=0;" edge="1" parent="Cc6EkGOJcDhfvZlC7IZs-4" source="Cc6EkGOJcDhfvZlC7IZs-9" target="Cc6EkGOJcDhfvZlC7IZs-15">
          <mxGeometry width="50" height="50" relative="1" as="geometry">
            <mxPoint x="600" y="-60" as="sourcePoint" />
            <mxPoint x="650" y="-110" as="targetPoint" />
            <Array as="points">
              <mxPoint x="530" y="-100" />
              <mxPoint x="530" y="100" />
            </Array>
          </mxGeometry>
        </mxCell>
        <mxCell id="Cc6EkGOJcDhfvZlC7IZs-11" value="Thời gian suy nghĩ: 15 giây" style="shape=delay;whiteSpace=wrap;html=1;" vertex="1" parent="Cc6EkGOJcDhfvZlC7IZs-4">
          <mxGeometry x="330" y="75" width="80" height="50" as="geometry" />
        </mxCell>
        <mxCell id="Cc6EkGOJcDhfvZlC7IZs-37" value="" style="edgeStyle=orthogonalEdgeStyle;rounded=0;orthogonalLoop=1;jettySize=auto;html=1;" edge="1" parent="Cc6EkGOJcDhfvZlC7IZs-4" source="Cc6EkGOJcDhfvZlC7IZs-15" target="Cc6EkGOJcDhfvZlC7IZs-36">
          <mxGeometry relative="1" as="geometry" />
        </mxCell>
        <mxCell id="Cc6EkGOJcDhfvZlC7IZs-15" value="Lựa chọn người chơi" style="rhombus;whiteSpace=wrap;html=1;" vertex="1" parent="Cc6EkGOJcDhfvZlC7IZs-4">
          <mxGeometry x="560" y="70" width="80" height="60" as="geometry" />
        </mxCell>
        <mxCell id="Cc6EkGOJcDhfvZlC7IZs-17" value="false" style="text;html=1;align=center;verticalAlign=middle;whiteSpace=wrap;rounded=0;" vertex="1" parent="Cc6EkGOJcDhfvZlC7IZs-4">
          <mxGeometry x="550" y="130" width="50" height="30" as="geometry" />
        </mxCell>
        <mxCell id="Cc6EkGOJcDhfvZlC7IZs-63" style="edgeStyle=orthogonalEdgeStyle;rounded=0;orthogonalLoop=1;jettySize=auto;html=1;entryX=0.5;entryY=1;entryDx=0;entryDy=0;" edge="1" parent="Cc6EkGOJcDhfvZlC7IZs-4" source="Cc6EkGOJcDhfvZlC7IZs-32" target="Cc6EkGOJcDhfvZlC7IZs-49">
          <mxGeometry relative="1" as="geometry" />
        </mxCell>
        <mxCell id="Cc6EkGOJcDhfvZlC7IZs-32" value="Hiện kết quả đáp án (viền vàng)" style="rounded=1;whiteSpace=wrap;html=1;" vertex="1" parent="Cc6EkGOJcDhfvZlC7IZs-4">
          <mxGeometry x="547.5" y="180" width="105" height="50" as="geometry" />
        </mxCell>
        <mxCell id="Cc6EkGOJcDhfvZlC7IZs-35" value="" style="endArrow=classic;html=1;rounded=0;exitX=0.5;exitY=1;exitDx=0;exitDy=0;entryX=0.5;entryY=0;entryDx=0;entryDy=0;" edge="1" parent="Cc6EkGOJcDhfvZlC7IZs-4" source="Cc6EkGOJcDhfvZlC7IZs-15" target="Cc6EkGOJcDhfvZlC7IZs-32">
          <mxGeometry width="50" height="50" relative="1" as="geometry">
            <mxPoint x="330" y="300" as="sourcePoint" />
            <mxPoint x="380" y="250" as="targetPoint" />
          </mxGeometry>
        </mxCell>
        <mxCell id="Cc6EkGOJcDhfvZlC7IZs-41" style="edgeStyle=orthogonalEdgeStyle;rounded=0;orthogonalLoop=1;jettySize=auto;html=1;entryX=0;entryY=0.5;entryDx=0;entryDy=0;" edge="1" parent="Cc6EkGOJcDhfvZlC7IZs-4" source="Cc6EkGOJcDhfvZlC7IZs-36" target="Cc6EkGOJcDhfvZlC7IZs-40">
          <mxGeometry relative="1" as="geometry" />
        </mxCell>
        <mxCell id="Cc6EkGOJcDhfvZlC7IZs-36" value="Hiện &quot;Correct&quot;" style="rounded=1;whiteSpace=wrap;html=1;" vertex="1" parent="Cc6EkGOJcDhfvZlC7IZs-4">
          <mxGeometry x="680" y="80" width="70" height="40" as="geometry" />
        </mxCell>
        <mxCell id="Cc6EkGOJcDhfvZlC7IZs-38" value="true" style="text;html=1;align=center;verticalAlign=middle;whiteSpace=wrap;rounded=0;" vertex="1" parent="Cc6EkGOJcDhfvZlC7IZs-4">
          <mxGeometry x="630" y="60" width="50" height="30" as="geometry" />
        </mxCell>
        <mxCell id="Cc6EkGOJcDhfvZlC7IZs-43" style="edgeStyle=orthogonalEdgeStyle;rounded=0;orthogonalLoop=1;jettySize=auto;html=1;entryX=0;entryY=0.5;entryDx=0;entryDy=0;" edge="1" parent="Cc6EkGOJcDhfvZlC7IZs-4" source="Cc6EkGOJcDhfvZlC7IZs-40" target="Cc6EkGOJcDhfvZlC7IZs-42">
          <mxGeometry relative="1" as="geometry" />
        </mxCell>
        <mxCell id="Cc6EkGOJcDhfvZlC7IZs-40" value="Điểm: +20/100" style="rounded=1;whiteSpace=wrap;html=1;" vertex="1" parent="Cc6EkGOJcDhfvZlC7IZs-4">
          <mxGeometry x="790" y="80" width="60" height="40" as="geometry" />
        </mxCell>
        <mxCell id="Cc6EkGOJcDhfvZlC7IZs-42" value="Hiện kết quả đáp án (viền vàng)" style="rounded=1;whiteSpace=wrap;html=1;" vertex="1" parent="Cc6EkGOJcDhfvZlC7IZs-4">
          <mxGeometry x="890" y="75" width="105" height="50" as="geometry" />
        </mxCell>
        <mxCell id="Cc6EkGOJcDhfvZlC7IZs-44" value="sync" style="text;html=1;align=center;verticalAlign=middle;whiteSpace=wrap;rounded=0;" vertex="1" parent="Cc6EkGOJcDhfvZlC7IZs-4">
          <mxGeometry x="780" y="10" width="80" height="30" as="geometry" />
        </mxCell>
        <mxCell id="Cc6EkGOJcDhfvZlC7IZs-46" value="" style="endArrow=classic;html=1;rounded=0;exitX=0.5;exitY=1;exitDx=0;exitDy=0;entryX=0.5;entryY=0;entryDx=0;entryDy=0;dashed=1;" edge="1" parent="Cc6EkGOJcDhfvZlC7IZs-4" source="Cc6EkGOJcDhfvZlC7IZs-44" target="Cc6EkGOJcDhfvZlC7IZs-36">
          <mxGeometry width="50" height="50" relative="1" as="geometry">
            <mxPoint x="730" y="340" as="sourcePoint" />
            <mxPoint x="780" y="290" as="targetPoint" />
          </mxGeometry>
        </mxCell>
        <mxCell id="Cc6EkGOJcDhfvZlC7IZs-47" value="" style="endArrow=classic;html=1;rounded=0;exitX=0.5;exitY=1;exitDx=0;exitDy=0;entryX=0.5;entryY=0;entryDx=0;entryDy=0;dashed=1;" edge="1" parent="Cc6EkGOJcDhfvZlC7IZs-4" source="Cc6EkGOJcDhfvZlC7IZs-44" target="Cc6EkGOJcDhfvZlC7IZs-40">
          <mxGeometry width="50" height="50" relative="1" as="geometry">
            <mxPoint x="730" y="350" as="sourcePoint" />
            <mxPoint x="780" y="300" as="targetPoint" />
          </mxGeometry>
        </mxCell>
        <mxCell id="Cc6EkGOJcDhfvZlC7IZs-48" value="" style="endArrow=classic;html=1;rounded=0;exitX=0.5;exitY=1;exitDx=0;exitDy=0;entryX=0.5;entryY=0;entryDx=0;entryDy=0;dashed=1;" edge="1" parent="Cc6EkGOJcDhfvZlC7IZs-4" source="Cc6EkGOJcDhfvZlC7IZs-44" target="Cc6EkGOJcDhfvZlC7IZs-42">
          <mxGeometry width="50" height="50" relative="1" as="geometry">
            <mxPoint x="710" y="310" as="sourcePoint" />
            <mxPoint x="760" y="260" as="targetPoint" />
          </mxGeometry>
        </mxCell>
        <mxCell id="Cc6EkGOJcDhfvZlC7IZs-60" style="edgeStyle=orthogonalEdgeStyle;rounded=0;orthogonalLoop=1;jettySize=auto;html=1;entryX=0.5;entryY=1;entryDx=0;entryDy=0;exitX=1;exitY=0.5;exitDx=0;exitDy=0;" edge="1" parent="Cc6EkGOJcDhfvZlC7IZs-4" source="Cc6EkGOJcDhfvZlC7IZs-49" target="Cc6EkGOJcDhfvZlC7IZs-7">
          <mxGeometry relative="1" as="geometry">
            <Array as="points">
              <mxPoint x="1220" y="100" />
              <mxPoint x="1220" y="340" />
              <mxPoint x="120" y="340" />
            </Array>
          </mxGeometry>
        </mxCell>
        <mxCell id="Cc6EkGOJcDhfvZlC7IZs-49" value="Thời gian hiện kết quả + sang câu hỏi tiếp theo: 7 giây" style="shape=delay;whiteSpace=wrap;html=1;" vertex="1" parent="Cc6EkGOJcDhfvZlC7IZs-4">
          <mxGeometry x="1040" y="71.25" width="160" height="57.5" as="geometry" />
        </mxCell>
        <mxCell id="Cc6EkGOJcDhfvZlC7IZs-50" value="" style="endArrow=classic;html=1;rounded=0;exitX=1;exitY=0.5;exitDx=0;exitDy=0;entryX=0;entryY=0.5;entryDx=0;entryDy=0;" edge="1" parent="Cc6EkGOJcDhfvZlC7IZs-4" source="Cc6EkGOJcDhfvZlC7IZs-42" target="Cc6EkGOJcDhfvZlC7IZs-49">
          <mxGeometry width="50" height="50" relative="1" as="geometry">
            <mxPoint x="1020" y="210" as="sourcePoint" />
            <mxPoint x="1070" y="160" as="targetPoint" />
          </mxGeometry>
        </mxCell>
        <mxCell id="Cc6EkGOJcDhfvZlC7IZs-52" value="" style="endArrow=classic;html=1;rounded=0;exitX=0.5;exitY=1;exitDx=0;exitDy=0;entryX=0.5;entryY=0;entryDx=0;entryDy=0;dashed=1;" edge="1" parent="Cc6EkGOJcDhfvZlC7IZs-4" source="Cc6EkGOJcDhfvZlC7IZs-44" target="Cc6EkGOJcDhfvZlC7IZs-49">
          <mxGeometry width="50" height="50" relative="1" as="geometry">
            <mxPoint x="980" y="210" as="sourcePoint" />
            <mxPoint x="1030" y="160" as="targetPoint" />
          </mxGeometry>
        </mxCell>
        <mxCell id="Cc6EkGOJcDhfvZlC7IZs-56" style="edgeStyle=orthogonalEdgeStyle;rounded=0;orthogonalLoop=1;jettySize=auto;html=1;entryX=0.5;entryY=0;entryDx=0;entryDy=0;" edge="1" parent="Cc6EkGOJcDhfvZlC7IZs-4" source="Cc6EkGOJcDhfvZlC7IZs-53" target="Cc6EkGOJcDhfvZlC7IZs-54">
          <mxGeometry relative="1" as="geometry" />
        </mxCell>
        <mxCell id="Cc6EkGOJcDhfvZlC7IZs-59" style="edgeStyle=orthogonalEdgeStyle;rounded=0;orthogonalLoop=1;jettySize=auto;html=1;entryX=0;entryY=0.5;entryDx=0;entryDy=0;" edge="1" parent="Cc6EkGOJcDhfvZlC7IZs-4" source="Cc6EkGOJcDhfvZlC7IZs-53" target="Cc6EkGOJcDhfvZlC7IZs-11">
          <mxGeometry relative="1" as="geometry" />
        </mxCell>
        <mxCell id="Cc6EkGOJcDhfvZlC7IZs-53" value="Số lượng câu hỏi" style="rhombus;whiteSpace=wrap;html=1;" vertex="1" parent="Cc6EkGOJcDhfvZlC7IZs-4">
          <mxGeometry x="185" y="65" width="100" height="70" as="geometry" />
        </mxCell>
        <mxCell id="Cc6EkGOJcDhfvZlC7IZs-57" style="edgeStyle=orthogonalEdgeStyle;rounded=0;orthogonalLoop=1;jettySize=auto;html=1;" edge="1" parent="Cc6EkGOJcDhfvZlC7IZs-4" source="Cc6EkGOJcDhfvZlC7IZs-54" target="Cc6EkGOJcDhfvZlC7IZs-55">
          <mxGeometry relative="1" as="geometry" />
        </mxCell>
        <mxCell id="Cc6EkGOJcDhfvZlC7IZs-54" value="Chuyển sang màn hình &quot;Kết thúc game&quot;" style="rounded=1;whiteSpace=wrap;html=1;" vertex="1" parent="Cc6EkGOJcDhfvZlC7IZs-4">
          <mxGeometry x="180" y="175" width="110" height="60" as="geometry" />
        </mxCell>
        <mxCell id="Cc6EkGOJcDhfvZlC7IZs-55" value="End" style="strokeWidth=2;html=1;shape=mxgraph.flowchart.terminator;whiteSpace=wrap;" vertex="1" parent="Cc6EkGOJcDhfvZlC7IZs-4">
          <mxGeometry x="334" y="190" width="55" height="30" as="geometry" />
        </mxCell>
        <mxCell id="Cc6EkGOJcDhfvZlC7IZs-61" value="còn" style="text;html=1;align=center;verticalAlign=middle;whiteSpace=wrap;rounded=0;" vertex="1" parent="Cc6EkGOJcDhfvZlC7IZs-4">
          <mxGeometry x="280" y="70" width="50" height="30" as="geometry" />
        </mxCell>
        <mxCell id="Cc6EkGOJcDhfvZlC7IZs-62" value="hết" style="text;html=1;align=center;verticalAlign=middle;whiteSpace=wrap;rounded=0;" vertex="1" parent="Cc6EkGOJcDhfvZlC7IZs-4">
          <mxGeometry x="230" y="135" width="50" height="30" as="geometry" />
        </mxCell>
        <mxCell id="Cc6EkGOJcDhfvZlC7IZs-64" value="sync" style="text;html=1;align=center;verticalAlign=middle;whiteSpace=wrap;rounded=0;" vertex="1" parent="Cc6EkGOJcDhfvZlC7IZs-4">
          <mxGeometry x="780" y="260" width="80" height="30" as="geometry" />
        </mxCell>
        <mxCell id="Cc6EkGOJcDhfvZlC7IZs-65" value="" style="endArrow=classic;html=1;rounded=0;exitX=0;exitY=0.5;exitDx=0;exitDy=0;entryX=0.5;entryY=1;entryDx=0;entryDy=0;dashed=1;" edge="1" parent="Cc6EkGOJcDhfvZlC7IZs-4" source="Cc6EkGOJcDhfvZlC7IZs-64" target="Cc6EkGOJcDhfvZlC7IZs-32">
          <mxGeometry width="50" height="50" relative="1" as="geometry">
            <mxPoint x="670" y="310" as="sourcePoint" />
            <mxPoint x="720" y="260" as="targetPoint" />
            <Array as="points">
              <mxPoint x="600" y="275" />
            </Array>
          </mxGeometry>
        </mxCell>
        <mxCell id="Cc6EkGOJcDhfvZlC7IZs-66" value="" style="endArrow=classic;html=1;rounded=0;exitX=1;exitY=0.5;exitDx=0;exitDy=0;entryX=0.25;entryY=1;entryDx=0;entryDy=0;dashed=1;" edge="1" parent="Cc6EkGOJcDhfvZlC7IZs-4" source="Cc6EkGOJcDhfvZlC7IZs-64" target="Cc6EkGOJcDhfvZlC7IZs-49">
          <mxGeometry width="50" height="50" relative="1" as="geometry">
            <mxPoint x="1040" y="290" as="sourcePoint" />
            <mxPoint x="1090" y="240" as="targetPoint" />
            <Array as="points">
              <mxPoint x="1080" y="275" />
            </Array>
          </mxGeometry>
        </mxCell>
      </root>
    </mxGraphModel>
  </diagram>
  <diagram id="SNVETyocNwBWcScUve08" name="Class Diagram - Game Logic">
    <mxGraphModel dx="1042" dy="527" grid="1" gridSize="10" guides="1" tooltips="1" connect="1" arrows="1" fold="1" page="1" pageScale="1" pageWidth="827" pageHeight="1169" math="0" shadow="0">
      <root>
        <mxCell id="0" />
        <mxCell id="1" parent="0" />
      </root>
    </mxGraphModel>
  </diagram>
</mxfile>
